<svg version="1.1" id="Layer_1" xmlns="http://www.w3.org/2000/svg" xmlns:xlink="http://www.w3.org/1999/xlink" x="0px" y="0px"
	 width="100%" viewBox="0 0 1024 1024" enable-background="new 0 0 1024 1024" xml:space="preserve">
<path fill="#000000" opacity="1.000000" stroke="none" 
	d="
M610.913940,681.964478 
	C607.147217,683.829407 603.644287,685.395935 600.313538,687.268494 
	C588.144104,694.110291 574.283630,695.555847 561.247986,699.619995 
	C539.661194,706.350342 517.342590,706.150879 495.172699,705.216980 
	C454.832031,703.517456 416.901611,692.862671 382.151459,671.894775 
	C355.997894,656.114014 332.237244,637.239563 313.388184,613.158508 
	C301.354065,597.784119 291.114471,581.033997 282.163513,563.467041 
	C271.931824,543.386597 266.083740,521.934937 260.310455,500.467590 
	C257.754486,490.963409 257.603180,480.778564 256.695068,470.872040 
	C254.554428,447.519287 257.187531,424.382568 261.884949,401.630096 
	C265.948395,381.948364 272.320770,362.841797 281.011810,344.544769 
	C288.526001,328.725342 297.319519,313.718384 307.707886,299.689362 
	C312.020294,293.865601 317.074768,288.553131 321.983490,283.156952 
	C344.290405,258.634918 370.904846,240.470779 401.416992,227.688843 
	C418.473480,220.543655 435.855835,214.426468 454.014923,211.075027 
	C463.050446,209.407455 472.225616,207.250107 481.646118,208.742767 
	C486.143677,209.455383 490.628357,208.296860 495.013000,207.526962 
	C511.806763,204.578171 528.307312,205.546371 544.856812,209.563507 
	C555.789001,212.217133 567.229248,212.561707 577.933777,216.472473 
	C591.191650,221.316071 604.430969,225.979584 617.210144,232.262253 
	C627.099243,237.124084 635.934387,243.221619 644.968262,249.209671 
	C646.936707,250.514435 648.511169,250.585129 650.545532,248.276596 
	C650.928833,251.651840 652.420776,253.458527 654.422791,255.223175 
	C660.916931,260.947449 667.157288,266.960754 673.460022,272.900330 
	C674.724121,274.091644 676.135193,275.255066 676.612183,277.434570 
	C675.766907,277.269104 675.125366,277.342072 674.903687,277.071350 
	C667.970276,268.602875 657.720947,264.212463 649.973877,256.761993 
	C647.292664,254.183426 644.010803,253.156815 640.624207,251.785919 
	C634.541687,249.323746 628.681274,245.962753 623.677063,241.471725 
	C621.429993,239.455109 619.062561,237.314819 615.909058,237.625122 
	C613.574829,237.854813 614.462524,240.238937 618.016663,242.340759 
	C619.019714,242.933960 620.034180,243.509460 621.060059,244.062302 
	C643.922852,256.383453 663.280518,273.196472 680.559753,292.255310 
	C691.301636,304.103485 699.356262,318.049438 705.801941,332.787140 
	C705.971985,333.176056 705.823364,333.704346 705.823364,335.845062 
	C699.448853,327.743011 697.031799,318.369019 689.355774,312.776428 
	C689.834167,316.357605 683.365356,317.948456 687.419556,322.525970 
	C683.531799,319.223572 679.544739,316.700989 679.962769,311.113647 
	C680.191040,308.061951 674.995178,302.075745 671.875305,301.765594 
	C669.372681,301.516815 668.101074,299.765106 666.625916,298.285919 
	C658.370178,290.007874 649.485413,282.517029 639.623108,276.208832 
	C638.366272,275.404968 637.071167,273.791290 635.704651,274.294952 
	C629.188110,276.696747 625.113647,271.754791 620.381775,269.286957 
	C597.523376,257.365723 573.309814,249.735519 548.041870,244.888214 
	C535.898865,242.558746 523.694641,241.687881 511.436157,240.872894 
	C507.838989,240.633743 504.554077,238.708496 500.685364,239.420837 
	C498.533630,239.817047 495.988739,239.860153 494.600983,241.213425 
	C491.568848,244.170303 488.191223,243.792343 484.542603,243.723297 
	C470.525208,243.458023 457.228851,247.335831 444.320221,252.079636 
	C424.597626,259.327484 406.182648,269.206207 388.760193,281.088531 
	C379.091980,287.682373 369.659943,294.476776 361.454010,302.761383 
	C347.825348,316.520691 335.392151,331.309998 326.421906,348.617645 
	C320.748291,359.564423 315.839233,370.891205 311.149628,382.306335 
	C305.408295,396.281494 303.056396,411.005127 301.351837,425.866486 
	C300.518829,433.129486 299.785522,440.419586 299.430939,447.717987 
	C298.977722,457.046021 300.506256,466.284851 301.484589,475.529175 
	C303.397797,493.607513 307.847076,511.144318 314.386047,528.050415 
	C323.335938,551.189758 335.476898,572.435181 352.909729,590.453247 
	C365.342499,603.303406 378.884094,614.516846 394.217712,623.879089 
	C402.154236,628.724915 409.919647,633.744934 418.384399,637.614380 
	C430.965027,643.365173 444.155579,647.201599 457.619659,650.224792 
	C476.982727,654.572571 496.464233,657.383728 516.418640,656.715698 
	C531.025085,656.226685 545.394592,654.809204 559.366272,650.303406 
	C564.865051,648.530151 571.665039,651.161255 576.178955,647.173401 
	C583.568726,640.644897 592.948975,638.752686 601.341431,634.626465 
	C605.339111,632.660950 609.212830,630.240784 613.770813,629.562927 
	C614.855225,629.401672 615.364136,628.491760 615.830750,627.567383 
	C617.502075,624.256531 620.662109,623.014526 623.932678,622.377319 
	C628.797241,621.429504 632.488098,619.065125 634.951477,614.777588 
	C635.815125,613.274353 637.154663,612.326416 638.665771,611.576172 
	C650.896301,605.503723 659.494934,595.461243 667.948792,585.160217 
	C672.796997,579.252686 678.099915,573.719116 682.628235,567.535034 
	C690.888672,556.254211 695.737549,543.353821 700.180725,530.293823 
	C702.962463,522.117188 705.151489,513.736572 708.028137,505.596466 
	C708.713501,503.657043 707.526917,499.154633 712.592407,500.388062 
	C713.187744,500.533020 714.122925,498.055664 714.131653,496.542816 
	C713.133301,495.059631 712.387085,496.811554 710.803589,496.520721 
	C711.545410,491.278046 711.805664,485.851562 713.158264,480.712616 
	C715.231873,472.834595 716.082703,464.776001 717.544861,456.813354 
	C717.913086,454.808502 717.663513,452.814117 720.268311,452.185638 
	C720.806885,452.055664 721.400879,451.353271 721.609497,450.783112 
	C723.449585,445.754181 722.251282,440.754822 721.949463,435.716461 
	C718.490234,438.114685 721.464905,442.200073 718.218689,444.627380 
	C718.512451,433.224701 717.879395,421.868958 718.247437,410.416779 
	C721.596497,414.973297 720.229614,420.566803 721.377319,425.750244 
	C724.731567,422.850800 724.806335,415.537903 722.823303,397.631653 
	C721.766846,388.092072 718.474182,378.960968 717.802002,369.376312 
	C719.568298,368.989014 719.890076,370.248871 720.046265,371.023987 
	C722.668640,384.039642 729.301208,395.909882 730.918884,409.210724 
	C731.299255,412.337891 731.823364,415.452667 732.417053,418.547089 
	C732.823181,420.664154 733.925842,422.223938 737.361755,422.219360 
	C739.162903,401.628632 731.714539,382.669403 727.449097,363.129669 
	C734.494141,375.901367 736.203735,390.435394 740.815796,403.976105 
	C741.245117,403.930542 741.674500,403.884949 742.103882,403.839386 
	C741.696716,399.722107 741.289551,395.604858 740.882446,391.487610 
	C744.337158,395.856079 743.834839,401.159546 745.625183,406.151001 
	C740.230286,406.717896 739.868042,410.175537 740.768127,413.927917 
	C741.537231,417.134064 742.917419,420.191559 743.980652,423.330597 
	C744.248352,424.121094 744.330933,425.154968 745.497559,424.455109 
	C747.669617,423.152008 747.938965,425.233307 748.063293,426.182861 
	C748.578430,430.117798 749.851807,433.990662 749.326721,438.027435 
	C749.201538,438.990234 749.148315,440.514862 748.586304,440.782593 
	C743.177124,443.359802 745.105713,448.451843 745.200256,452.263580 
	C745.306091,456.531219 746.031921,460.797607 745.123169,465.195496 
	C747.289673,466.326141 749.096252,465.421021 751.355652,465.299072 
	C749.083130,455.292480 753.693787,446.350372 754.182495,436.908325 
	C755.066345,454.478485 756.935059,471.999756 753.608215,489.538147 
	C750.233459,507.329224 746.810486,525.027710 739.644348,541.869263 
	C732.632446,558.348572 724.907349,574.415344 716.019592,590.018738 
	C724.039612,580.779419 728.460754,569.088806 736.392822,559.639404 
	C737.621399,561.226746 736.695496,562.273987 736.186401,563.190674 
	C730.628601,573.199341 724.853149,583.069702 718.881592,592.848633 
	C714.015625,600.817078 706.938354,606.917786 702.469238,615.106750 
	C695.705444,627.500366 684.051514,635.252930 673.389832,643.707703 
	C660.028809,654.302979 645.973022,663.989136 631.111389,672.491760 
	C624.704590,676.157288 617.919495,678.802002 610.913940,681.964478 
M743.455872,489.331085 
	C740.589172,494.954529 738.254883,500.743439 738.162292,507.179779 
	C738.146851,508.250092 737.899231,509.586212 740.083740,510.148590 
	C743.439575,503.506805 744.258484,496.365295 744.471436,488.619568 
	C745.665833,486.285156 745.433228,484.118835 743.832153,481.646484 
	C741.150452,484.561279 742.783264,486.787109 743.455872,489.331085 
z"/>
<path fill="#000000" opacity="1.000000" stroke="none" 
	d="
M614.676147,313.452362 
	C619.789307,323.050323 621.598328,333.020599 622.505371,343.441620 
	C624.032898,360.990967 618.221802,376.472961 610.629700,391.631775 
	C601.696899,409.467682 590.764526,426.060181 576.874573,440.317719 
	C564.926147,452.582336 552.128113,464.147278 537.014526,472.597870 
	C532.642456,475.042419 531.116150,478.321411 530.859436,483.062469 
	C529.534424,507.537567 530.597900,532.012573 530.562439,556.486877 
	C530.557678,559.778198 530.245483,563.195435 529.309631,566.325317 
	C528.269165,569.804688 525.382385,570.919373 521.728088,570.258606 
	C509.933167,568.125610 504.654114,561.090088 504.844421,547.727966 
	C505.133667,527.416687 505.309845,507.103516 505.672668,486.793640 
	C505.744904,482.750305 504.840302,479.495636 501.975067,476.395905 
	C496.551910,470.528931 497.001648,467.251953 503.441742,462.184601 
	C508.500916,458.203766 506.995026,452.311768 507.441711,447.360352 
	C509.141846,428.516205 510.280487,409.636749 512.271667,390.795074 
	C513.787231,376.453552 515.964233,362.149200 516.668457,347.715149 
	C516.716858,346.724731 517.030090,345.721863 516.114624,344.786469 
	C513.941895,343.853210 512.930481,345.739624 511.651154,346.889832 
	C507.254669,350.842560 500.903015,351.678131 496.609680,348.816864 
	C492.253601,345.913788 490.506836,339.641571 492.429260,334.049530 
	C494.243011,328.773651 497.833801,324.882599 502.239288,321.747864 
	C519.658936,309.352844 539.021790,300.759155 559.355835,294.781494 
	C575.157837,290.136108 590.971680,290.413147 604.629150,301.947235 
	C608.482544,305.201538 611.840881,308.839600 614.676147,313.452362 
M533.348755,429.558533 
	C533.925171,432.805176 531.234741,437.245483 535.251404,439.093445 
	C538.894592,440.769562 541.265381,436.499481 544.292908,435.059082 
	C544.585754,434.919769 544.819763,434.655762 545.078918,434.446869 
	C562.219299,420.628174 575.059082,403.319550 584.751465,383.786621 
	C593.324036,366.510590 600.958191,348.824341 598.732666,328.627502 
	C597.939270,321.426819 595.236938,317.563232 588.264038,315.243408 
	C575.929993,311.139862 564.724854,314.862518 553.656494,319.813904 
	C548.340759,322.191864 544.101562,325.302307 546.345642,332.215240 
	C546.540405,332.815216 546.472595,333.558990 546.341309,334.197845 
	C542.603455,352.385956 539.832642,370.719971 537.844543,389.180603 
	C536.427551,402.338318 534.852295,415.479034 533.348755,429.558533 
z"/>
<path fill="#000000" opacity="1.000000" stroke="none" 
	d="
M402.811951,536.710205 
	C400.552429,519.552795 402.187469,503.170898 406.418427,486.911774 
	C407.401611,483.133392 408.051086,479.312988 412.422272,478.884888 
	C417.317535,478.405487 420.119080,482.231842 422.472321,485.835205 
	C424.447449,488.859558 424.338654,492.520691 423.995697,495.985291 
	C422.327972,512.832214 423.278992,529.464844 427.316437,545.947327 
	C429.351654,554.255737 432.994202,560.897522 438.803040,565.309143 
	C441.306183,564.187561 442.077271,561.809631 442.894745,559.462891 
	C446.859406,548.081543 448.493561,536.239258 449.614502,524.327881 
	C451.013672,509.459747 452.173462,494.568939 453.407593,479.685486 
	C453.558685,477.862915 453.622894,476.022919 453.571808,474.195343 
	C453.040985,455.200134 454.119995,436.223236 454.963074,417.278717 
	C455.701233,400.692108 454.865967,383.999176 457.543945,367.498230 
	C457.964752,364.905365 457.788483,362.151642 457.477173,359.520996 
	C457.130463,356.591461 455.142151,355.084381 452.570496,356.952820 
	C442.058014,364.590881 431.711334,372.451447 424.603638,383.686340 
	C422.639496,386.790924 424.220734,388.222809 426.944244,389.289948 
	C430.910797,390.844177 431.453491,392.947754 428.484497,396.021667 
	C423.769897,400.902924 417.711853,399.881866 412.011047,399.066711 
	C408.461426,398.559113 405.009766,397.053253 401.855225,395.067932 
	C392.507477,389.184692 391.229248,381.784668 397.798157,372.806091 
	C403.623108,364.844360 411.736176,359.489380 419.261688,353.490021 
	C432.154022,343.212189 445.275909,333.252380 459.639282,325.013641 
	C467.051727,320.761932 478.906403,323.252228 483.429230,330.628510 
	C486.753265,336.049713 488.079865,341.995605 487.317108,348.301025 
	C484.095734,374.931305 483.701630,401.692383 483.002319,428.467316 
	C482.442841,449.886871 480.775421,471.286774 479.227692,492.668457 
	C477.850342,511.696503 476.574127,530.769348 474.049133,549.661438 
	C472.728516,559.542053 470.725677,569.752563 464.413361,578.186951 
	C456.466003,588.806152 436.762848,589.626465 426.313202,583.718384 
	C412.481964,575.898438 407.220337,563.065186 404.680420,548.455017 
	C404.027649,544.700073 403.471649,540.928223 402.811951,536.710205 
z"/>
<path fill="#000000" opacity="1.000000" stroke="none" 
	d="
M643.341492,502.175049 
	C633.304443,526.350586 625.485352,550.927612 616.263489,574.982117 
	C615.255493,577.611328 613.867920,580.099182 612.593079,582.620544 
	C611.612854,584.559265 610.060730,585.334534 607.795654,585.496216 
	C597.905396,586.201965 595.947998,584.063477 599.324951,574.874573 
	C609.187561,548.038391 619.209961,521.260376 629.307922,494.511780 
	C632.115112,487.075867 638.345520,485.029266 645.886414,488.702850 
	C645.795288,493.169708 644.319275,497.427551 643.341492,502.175049 
z"/>
<path fill="#000000" opacity="1.000000" stroke="none" 
	d="
M596.336548,511.728790 
	C599.853699,516.068848 598.626404,519.035156 594.602295,521.774353 
	C589.389648,525.322571 584.394348,529.190002 579.303345,532.916931 
	C575.571594,535.648804 575.540710,538.546082 579.036011,541.447937 
	C583.760986,545.370667 588.482422,549.304443 593.342224,553.056213 
	C597.717346,556.433716 596.774109,566.012756 591.710083,568.417969 
	C590.249634,569.111633 589.161072,568.422791 588.085754,567.571594 
	C578.840271,560.253296 569.494934,553.056641 560.379639,545.579651 
	C552.902771,539.446472 552.585449,535.730530 559.970276,529.591980 
	C570.129883,521.147034 580.880127,513.412537 591.657715,505.158966 
	C593.475159,507.712280 594.798706,509.571747 596.336548,511.728790 
z"/>
<path fill="#000000" opacity="1.000000" stroke="none" 
	d="
M669.915039,519.077026 
	C675.179443,523.427063 680.720337,526.882446 685.237305,531.583252 
	C689.378845,535.893372 689.361633,538.692444 685.420837,543.214417 
	C678.559082,551.088379 669.376648,556.079773 661.400208,562.568237 
	C652.123169,570.114746 651.931091,569.879822 644.867676,560.007812 
	C644.779480,559.884521 644.795776,559.686646 644.690918,559.160339 
	C649.560669,553.062500 655.720581,548.078430 662.216797,543.467712 
	C667.851074,539.468689 667.923523,536.861938 662.545166,532.272949 
	C658.122192,528.499146 653.915833,524.446350 649.291687,520.941772 
	C645.979065,518.431213 645.969971,515.977844 647.971436,512.873779 
	C649.392700,510.669525 649.943542,507.926331 652.501831,505.742218 
	C658.869019,509.140808 663.807251,514.614990 669.915039,519.077026 
z"/>
<path fill="#000000" opacity="1.000000" stroke="none" 
	d="
M713.397461,371.252686 
	C714.311523,374.747681 715.310730,377.864471 714.790405,382.221741 
	C712.537964,377.472473 711.958191,373.364777 711.055298,369.290833 
	C712.949280,368.855011 712.950134,370.074341 713.397461,371.252686 
z"/>
</svg>